<?xml version="1.0" encoding="UTF-8"?>
<svg id="Text" xmlns="http://www.w3.org/2000/svg" xmlns:xlink="http://www.w3.org/1999/xlink" viewBox="0 0 1030 722.973">
  <defs>
    <style>
      .cls-1 {
        filter: url(#drop-shadow-1);
      }

      .cls-2 {
        fill: #76fbd9;
        stroke: #000;
        stroke-miterlimit: 10;
        stroke-width: 10px;
      }
    </style>
    <filter id="drop-shadow-1" filterUnits="userSpaceOnUse">
      <feOffset dx="20" dy="20"/>
      <feGaussianBlur result="blur" stdDeviation="0"/>
      <feFlood flood-color="#000" flood-opacity="1"/>
      <feComposite in2="blur" operator="in"/>
      <feComposite in="SourceGraphic"/>
    </filter>
  </defs>
  <g id="light" class="cls-1">
    <path class="cls-2" d="M196.124,537.675c-29.189,0-55.18-6.271-77.991-18.805s-40.797-30.518-53.946-53.946c-13.159-23.428-19.729-50.96-19.729-82.614v-6.166c0-32.059,6.57-59.697,19.729-82.923,13.149-23.216,31.135-41.095,53.946-53.638,22.812-12.533,48.802-18.804,77.991-18.804,28.765,0,53.118,5.452,73.059,16.338,19.931,10.895,35.546,25.075,46.856,42.541,11.3,17.475,18.39,35.865,21.271,55.179l-36.375,7.398c-2.062-16.03-7.196-30.721-15.413-44.082-8.227-13.352-19.729-24.044-34.525-32.059-14.797-8.015-33.09-12.022-54.871-12.022s-41.308,5.038-58.57,15.105c-17.263,10.076-30.933,24.256-40.999,42.541-10.077,18.293-15.105,39.978-15.105,65.044v4.932c0,25.075,5.028,46.76,15.105,65.044,10.066,18.294,23.736,32.474,40.999,42.541,17.263,10.076,36.78,15.104,58.57,15.104,32.878,0,57.954-8.525,75.216-25.586,17.263-17.051,27.946-37.917,32.06-62.578l36.375,7.398c-3.699,19.324-11.406,37.715-23.12,55.18-11.714,17.475-27.542,31.655-47.473,42.54-19.941,10.886-44.294,16.339-73.059,16.339Z"/>
    <path class="cls-2" d="M493.905,537.675c-30.422,0-57.029-6.474-79.841-19.421s-40.488-31.029-53.021-54.255c-12.542-23.216-18.804-50.247-18.804-81.073v-7.398c0-30.826,6.261-57.848,18.804-81.073,12.533-23.216,30.21-41.308,53.021-54.255,22.812-12.947,49.419-19.42,79.841-19.42s57.029,6.474,79.839,19.42c22.812,12.947,40.48,31.039,53.021,54.255,12.533,23.226,18.805,50.247,18.805,81.073v7.398c0,30.826-6.271,57.857-18.805,81.073-12.541,23.226-30.209,41.308-53.021,54.255-22.811,12.947-49.428,19.421-79.839,19.421ZM493.905,504.382c35.345,0,63.291-11.194,83.847-33.601,20.549-22.397,30.826-52.097,30.826-89.089v-4.932c0-36.992-10.277-66.682-30.826-89.089-20.557-22.397-48.502-33.601-83.847-33.601-34.94,0-62.79,11.204-83.54,33.601-20.759,22.407-31.134,52.097-31.134,89.089v4.932c0,36.992,10.375,66.691,31.134,89.089,20.75,22.406,48.6,33.601,83.54,33.601Z"/>
    <path class="cls-2" d="M585.151,222.012v-25.894h14.797c13.149,0,19.729-6.57,19.729-19.729v-19.729h-8.015c-9.864,0-18.188-3.179-24.97-9.556-6.781-6.368-10.172-14.488-10.172-24.353s3.391-17.976,10.172-24.353c6.782-6.368,15.105-9.556,24.97-9.556s18.188,3.391,24.97,10.172c6.781,6.782,10.173,15.105,10.173,24.97v51.172c0,31.241-15.414,46.856-46.24,46.856h-15.413Z"/>
    <path class="cls-2" d="M821.277,537.675c-32.888,0-58.474-6.474-76.758-19.421-18.293-12.947-31.751-27.638-40.383-44.082h-7.398v54.871h-35.758V97.474h36.991v184.342h7.398c5.337-10.269,12.841-20.037,22.503-29.285,9.653-9.248,22.195-16.849,37.608-22.812,15.413-5.953,34.006-8.939,55.796-8.939,27.127,0,51.576,6.271,73.367,18.804,21.78,12.542,39.044,30.422,51.788,53.638,12.735,23.226,19.112,50.662,19.112,82.307v7.398c0,31.655-6.474,59.09-19.42,82.307-12.947,23.226-30.316,41.104-52.097,53.638-21.791,12.533-46.038,18.805-72.751,18.805ZM812.646,504.382c34.111,0,61.749-10.886,82.923-32.676,21.164-21.781,31.751-51.789,31.751-90.014v-4.932c0-38.225-10.587-68.223-31.751-90.014-21.174-21.781-48.812-32.676-82.923-32.676-33.707,0-61.249,10.895-82.615,32.676-21.376,21.791-32.06,51.789-32.06,90.014v4.932c0,38.225,10.684,68.232,32.06,90.014,21.366,21.79,48.908,32.676,82.615,32.676Z"/>
  </g>
</svg>