<?xml version="1.0" encoding="UTF-8"?>
<svg id="Text" xmlns="http://www.w3.org/2000/svg" xmlns:xlink="http://www.w3.org/1999/xlink" viewBox="0 0 1029.478 691.999">
  <defs>
    <style>
      .cls-1 {
        filter: url(#drop-shadow-1);
      }

      .cls-2 {
        fill: #76fbd9;
        stroke: #000;
        stroke-miterlimit: 10;
        stroke-width: 10px;
      }
    </style>
    <filter id="drop-shadow-1" filterUnits="userSpaceOnUse">
      <feOffset dx="20" dy="20"/>
      <feGaussianBlur result="blur" stdDeviation="0"/>
      <feFlood flood-color="#000" flood-opacity="1"/>
      <feComposite in2="blur" operator="in"/>
      <feComposite in="SourceGraphic"/>
    </filter>
  </defs>
  <g id="bold" class="cls-1">
    <path class="cls-2" d="M183.458,513.865c-28.271,0-53.891-5.89-76.861-17.669-22.97-11.779-41.136-28.859-54.48-51.24-13.353-22.381-20.025-49.474-20.025-81.278v-8.245c0-31.805,6.672-58.897,20.025-81.278,13.344-22.381,31.51-39.461,54.48-51.24,22.97-11.78,48.59-17.669,76.861-17.669,27.875,0,51.829,4.915,71.854,14.724,20.025,9.819,36.222,23.265,48.59,40.345,12.369,17.08,20.513,36.424,24.442,58.014l-71.854,15.313c-1.574-11.78-5.107-22.381-10.602-31.805-5.503-9.423-13.252-16.877-23.264-22.381-10.013-5.494-22.482-8.246-37.4-8.246s-28.372,3.239-40.344,9.718c-11.982,6.479-21.406,16.104-28.271,28.859-6.874,12.764-10.307,28.372-10.307,46.823v5.89c0,18.461,3.433,34.068,10.307,46.823,6.865,12.765,16.289,22.381,28.271,28.859,11.973,6.479,25.417,9.719,40.344,9.719,22.381,0,39.36-5.789,50.946-17.375,11.577-11.577,18.939-26.798,22.086-45.646l71.854,17.08c-5.107,20.816-13.841,39.756-26.209,56.836-12.368,17.08-28.565,30.534-48.59,40.345-20.025,9.81-43.98,14.724-71.854,14.724Z"/>
    <path class="cls-2" d="M480.888,513.865c-29.062,0-55.17-5.89-78.333-17.669-23.172-11.779-41.431-28.859-54.774-51.24-13.353-22.381-20.025-49.271-20.025-80.689v-9.423c0-31.409,6.672-58.309,20.025-80.689,13.344-22.381,31.602-39.461,54.774-51.24,23.163-11.78,49.271-17.669,78.333-17.669s55.16,5.89,78.334,17.669c23.162,11.779,41.42,28.859,54.773,51.24,13.344,22.381,20.025,49.28,20.025,80.689v9.423c0,31.418-6.682,58.309-20.025,80.689-13.354,22.381-31.611,39.461-54.773,51.24-23.174,11.779-49.281,17.669-78.334,17.669ZM480.888,447.901c22.768,0,41.615-7.362,56.541-22.087,14.918-14.725,22.381-35.826,22.381-63.314v-5.89c0-27.479-7.361-48.59-22.086-63.314s-33.673-22.086-56.836-22.086c-22.776,0-41.624,7.362-56.541,22.086-14.927,14.724-22.381,35.835-22.381,63.314v5.89c0,27.488,7.454,48.59,22.381,63.314,14.917,14.725,33.765,22.087,56.541,22.087Z"/>
    <path class="cls-2" d="M575.72,274.154v-40.05h22.971c18.056,0,27.093-9.028,27.093-27.093v-18.847h-10.013c-15.709,0-28.768-4.712-39.167-14.135-10.408-9.424-15.607-21.396-15.607-35.927,0-15.7,5.199-28.464,15.607-38.283,10.399-9.81,23.458-14.724,39.167-14.724,16.095,0,29.246,5.006,39.461,15.019,10.206,10.013,15.313,23.467,15.313,40.345v67.731c0,43.979-21.995,65.965-65.965,65.965h-28.86Z"/>
    <path class="cls-2" d="M845.463,513.865c-26.311,0-46.528-4.518-60.664-13.546-14.135-9.027-24.543-19.04-31.215-30.037h-10.602v35.338h-73.033V93.34h74.211v153.721h10.602c4.315-7.067,10.104-13.739,17.374-20.025,7.262-6.276,16.878-11.485,28.86-15.608,11.973-4.123,26.798-6.184,44.467-6.184,23.56,0,45.351,5.798,65.376,17.375,20.025,11.586,36.121,28.565,48.296,50.946,12.166,22.381,18.258,49.474,18.258,81.278v9.423c0,31.805-6.092,58.897-18.258,81.278-12.175,22.381-28.271,39.369-48.296,50.946s-41.816,17.374-65.376,17.374ZM823.082,449.079c22.768,0,41.817-7.362,57.131-22.087,15.312-14.724,22.97-36.222,22.97-64.492v-5.89c0-28.271-7.564-49.768-22.676-64.492-15.12-14.725-34.262-22.086-57.425-22.086-22.776,0-41.816,7.362-57.13,22.086-15.313,14.724-22.97,36.222-22.97,64.492v5.89c0,28.271,7.656,49.769,22.97,64.492,15.313,14.725,34.354,22.087,57.13,22.087Z"/>
  </g>
</svg>